<?xml version="1.0" encoding="iso-8859-1"?>
<!-- Uploaded to: SVG Repo, www.svgrepo.com, Generator: SVG Repo Mixer Tools -->
<svg fill="#000000" height="800px" width="800px" version="1.1" id="Layer_1" xmlns="http://www.w3.org/2000/svg" xmlns:xlink="http://www.w3.org/1999/xlink" 
	 viewBox="0 0 512 512" xml:space="preserve">
<g>
	<g>
		<path d="M474.126,403.407h-11.863V16.457C462.264,7.369,454.896,0,445.806,0H66.195c-9.088,0-16.457,7.369-16.457,16.457v386.95
			H37.875c-9.088,0-16.457,7.369-16.457,16.457v75.678c0,9.088,7.369,16.457,16.457,16.457h152.331
			c-0.009-0.226-0.035-0.449-0.035-0.679V369.058c0-9.088,7.369-16.457,16.457-16.457h98.743c9.09,0,16.457,7.369,16.457,16.457
			v142.262c0,0.23-0.025,0.452-0.035,0.679h152.331c9.09,0,16.457-7.369,16.457-16.457v-75.678
			C490.583,410.775,483.216,403.407,474.126,403.407z M177.281,284.16c0,9.088-7.369,16.457-16.457,16.457h-53.76
			c-9.088,0-16.457-7.369-16.457-16.457v-53.76c0-9.088,7.369-16.457,16.457-16.457h53.76c9.088,0,16.457,7.369,16.457,16.457
			V284.16z M177.281,155.794c0,9.088-7.369,16.457-16.457,16.457h-53.76c-9.088,0-16.457-7.369-16.457-16.457v-53.76
			c0-9.088,7.369-16.457,16.457-16.457h53.76c9.088,0,16.457,7.369,16.457,16.457V155.794z M299.338,284.16
			c0,9.088-7.369,16.457-16.457,16.457h-53.76c-9.088,0-16.457-7.369-16.457-16.457v-53.76c0-9.088,7.369-16.457,16.457-16.457
			h53.76c9.088,0,16.457,7.369,16.457,16.457V284.16z M299.338,155.794c0,9.088-7.369,16.457-16.457,16.457h-53.76
			c-9.088,0-16.457-7.369-16.457-16.457v-53.76c0-9.088,7.369-16.457,16.457-16.457h53.76c9.088,0,16.457,7.369,16.457,16.457
			V155.794z M421.395,284.16c0,9.088-7.369,16.457-16.457,16.457h-53.76c-9.088,0-16.457-7.369-16.457-16.457v-53.76
			c0-9.088,7.369-16.457,16.457-16.457h53.76c9.088,0,16.457,7.369,16.457,16.457V284.16z M421.395,155.794
			c0,9.088-7.369,16.457-16.457,16.457h-53.76c-9.088,0-16.457-7.369-16.457-16.457v-53.76c0-9.088,7.369-16.457,16.457-16.457
			h53.76c9.088,0,16.457,7.369,16.457,16.457V155.794z"/>
	</g>
</g>
</svg>