<?xml version="1.0" encoding="iso-8859-1"?>
<!-- Uploaded to: SVG Repo, www.svgrepo.com, Generator: SVG Repo Mixer Tools -->
<svg fill="#000000" height="800px" width="800px" version="1.1" id="Layer_1" xmlns="http://www.w3.org/2000/svg" xmlns:xlink="http://www.w3.org/1999/xlink" 
	 viewBox="0 0 511.992 511.992" xml:space="preserve">
<g>
	<g>
		<path d="M258.052,463.16l18.336-23.424C291.164,420.648,421.66,251.12,421.66,166.792C421.66,65.48,356.668,0,255.996,0
			S90.332,65.48,90.332,166.792c0,84.448,130.488,253.976,145.4,272.944l18.224,23.424c-76.336,0.2-137.896,11.04-137.896,24.408
			c0,13.488,62.688,24.424,140.016,24.424s140.016-10.936,140.016-24.424C396.092,474.192,334.46,463.344,258.052,463.16z
			 M255.996,218.888c-29.632,0-53.648-23.376-53.648-52.208c0-28.832,24.016-52.208,53.648-52.208
			c29.632,0,53.648,23.376,53.648,52.208C309.644,195.512,285.628,218.888,255.996,218.888z"/>
	</g>
</g>
</svg>