<!DOCTYPE svg PUBLIC "-//W3C//DTD SVG 1.1//EN" "http://www.w3.org/Graphics/SVG/1.1/DTD/svg11.dtd">
<!-- Uploaded to: SVG Repo, www.svgrepo.com, Transformed by: SVG Repo Mixer Tools -->
<svg version="1.1" id="Layer_1" xmlns="http://www.w3.org/2000/svg" xmlns:xlink="http://www.w3.org/1999/xlink" viewBox="0 0 512.001 512.001" xml:space="preserve" width="800px" height="800px" fill="#000000">
<g id="SVGRepo_bgCarrier" stroke-width="0"/>
<g id="SVGRepo_tracerCarrier" stroke-linecap="round" stroke-linejoin="round"/>
<g id="SVGRepo_iconCarrier"> <rect x="226.296" y="68.862" transform="matrix(-0.7071 0.7071 -0.7071 -0.7071 709.1928 35.9349)" style="fill:#09d721;" width="241.717" height="191.969"/> <path style="fill:#ff5900;" d="M277.976,120.077l-35.315-35.314l-231.15,231.15L196.086,500.49l231.15-231.15l-35.314-35.315 c-31.466,31.466-82.481,31.466-113.948,0S246.51,151.543,277.976,120.077z"/> <path d="M508.629,139.113L372.888,3.371C370.729,1.213,367.801,0,364.749,0s-5.981,1.213-8.139,3.371l-73.252,73.252 c-4.495,4.495-4.495,11.783,0,16.279c4.495,4.494,11.783,4.494,16.279,0l65.112-65.112l119.463,119.462l-65.113,65.112 c-4.495,4.495-4.495,11.783,0,16.279c2.248,2.247,5.193,3.371,8.139,3.371c2.946,0,5.892-1.125,8.139-3.371l73.252-73.252 C513.124,150.897,513.125,143.609,508.629,139.113z"/> <path d="M339.415,123.751l-57.059,57.059c-4.495,4.495-4.495,11.783,0,16.279c2.248,2.247,5.193,3.371,8.139,3.371 s5.892-1.125,8.139-3.371l57.059-57.059c4.495-4.495,4.495-11.783,0-16.279C351.199,119.256,343.91,119.256,339.415,123.751z"/> <path d="M314.912,229.646c2.248,2.247,5.193,3.371,8.139,3.371s5.892-1.125,8.139-3.371l57.06-57.06 c4.495-4.495,4.495-11.783,0-16.279c-4.495-4.494-11.783-4.494-16.279,0l-57.059,57.059 C310.418,217.861,310.418,225.15,314.912,229.646z"/> <path d="M400.063,225.885c-0.273-0.273-0.558-0.529-0.854-0.772c-0.215-0.175-0.439-0.333-0.663-0.49 c-0.083-0.059-0.16-0.123-0.244-0.18c-0.274-0.183-0.556-0.348-0.841-0.504c-0.041-0.023-0.081-0.051-0.122-0.073 c-0.29-0.154-0.586-0.29-0.886-0.418c-0.045-0.02-0.087-0.043-0.132-0.062c-0.28-0.115-0.565-0.213-0.852-0.305 c-0.071-0.024-0.14-0.053-0.213-0.074c-0.26-0.078-0.524-0.138-0.788-0.199c-0.104-0.023-0.204-0.054-0.308-0.074 c-0.239-0.047-0.481-0.076-0.723-0.108c-0.131-0.018-0.261-0.044-0.394-0.058c-0.266-0.025-0.533-0.032-0.8-0.039 c-0.106-0.002-0.211-0.016-0.318-0.016s-0.212,0.014-0.318,0.016c-0.267,0.007-0.534,0.014-0.8,0.039 c-0.132,0.014-0.262,0.039-0.394,0.058c-0.242,0.031-0.483,0.061-0.723,0.108c-0.104,0.021-0.205,0.052-0.308,0.074 c-0.264,0.061-0.527,0.12-0.788,0.199c-0.072,0.022-0.142,0.051-0.213,0.074c-0.287,0.092-0.572,0.19-0.852,0.305 c-0.046,0.02-0.09,0.044-0.136,0.063c-0.298,0.128-0.594,0.264-0.883,0.417c-0.043,0.023-0.081,0.051-0.122,0.073 c-0.285,0.157-0.569,0.32-0.841,0.504c-0.084,0.056-0.162,0.121-0.244,0.18c-0.224,0.158-0.449,0.314-0.663,0.49 c-0.296,0.243-0.581,0.5-0.854,0.772c-0.835,0.836-1.686,1.643-2.552,2.425c-0.121,0.109-0.247,0.211-0.37,0.319 c-0.761,0.678-1.529,1.346-2.311,1.983c-0.023,0.02-0.047,0.037-0.071,0.055c-25.269,20.548-61.794,20.548-87.063,0 c-0.023-0.018-0.047-0.036-0.07-0.055c-0.784-0.638-1.55-1.305-2.311-1.983c-0.121-0.109-0.249-0.211-0.369-0.319 c-0.866-0.784-1.717-1.591-2.552-2.425c-0.836-0.836-1.644-1.687-2.428-2.554c-0.1-0.11-0.192-0.227-0.292-0.338 c-0.688-0.771-1.364-1.549-2.011-2.342c-0.009-0.013-0.018-0.024-0.028-0.036c-20.582-25.282-20.582-61.846,0-87.127 c0.009-0.013,0.018-0.024,0.028-0.035c0.647-0.793,1.323-1.572,2.011-2.342c0.1-0.113,0.192-0.229,0.292-0.34 c0.784-0.867,1.592-1.719,2.428-2.554c4.495-4.495,4.495-11.783,0-16.279l-35.314-35.315c-2.158-2.158-5.086-3.371-8.139-3.371 c-3.053,0-5.981,1.213-8.139,3.371L3.372,307.774c-4.495,4.495-4.495,11.783,0,16.279L187.947,508.63 c2.158,2.158,5.086,3.371,8.139,3.371s5.981-1.213,8.139-3.371l231.15-231.15c4.495-4.495,4.495-11.783,0-16.279L400.063,225.885z M196.087,484.212L27.79,315.913l214.872-214.872l19.542,19.542c-0.28,0.36-0.536,0.731-0.809,1.092 c-0.401,0.532-0.799,1.065-1.187,1.603c-0.482,0.67-0.95,1.348-1.412,2.028c-0.369,0.543-0.74,1.085-1.097,1.636 c-0.452,0.695-0.884,1.401-1.316,2.106c-0.334,0.547-0.673,1.09-0.994,1.643c-0.428,0.734-0.832,1.478-1.239,2.223 c-0.292,0.536-0.595,1.068-0.876,1.609c-0.42,0.808-0.813,1.628-1.207,2.445c-0.235,0.487-0.485,0.969-0.71,1.46 c-0.54,1.173-1.049,2.354-1.535,3.542c-0.16,0.389-0.311,0.78-0.464,1.172c-0.425,1.075-0.839,2.154-1.222,3.241 c-0.19,0.541-0.356,1.087-0.534,1.63c-0.27,0.817-0.544,1.633-0.792,2.456c-0.181,0.605-0.341,1.215-0.509,1.822 c-0.213,0.769-0.429,1.537-0.622,2.309c-0.159,0.638-0.299,1.276-0.444,1.915c-0.17,0.752-0.341,1.503-0.493,2.257 c-0.131,0.654-0.247,1.309-0.365,1.965c-0.134,0.746-0.264,1.494-0.378,2.243c-0.101,0.663-0.192,1.326-0.28,1.99 c-0.098,0.747-0.189,1.494-0.268,2.242c-0.071,0.669-0.136,1.336-0.192,2.006c-0.063,0.749-0.116,1.5-0.161,2.251 c-0.04,0.666-0.077,1.334-0.102,2.002c-0.029,0.759-0.044,1.516-0.054,2.277c-0.009,0.661-0.02,1.321-0.015,1.983 c0.006,0.771,0.03,1.541,0.055,2.311c0.021,0.648,0.037,1.297,0.071,1.944c0.043,0.797,0.108,1.593,0.17,2.388 c0.048,0.619,0.089,1.239,0.15,1.857c0.086,0.862,0.199,1.721,0.31,2.581c0.07,0.55,0.125,1.1,0.206,1.649 c0.178,1.221,0.388,2.437,0.616,3.651c0.074,0.397,0.153,0.792,0.232,1.187c0.235,1.171,0.483,2.338,0.764,3.499 c0.125,0.523,0.275,1.039,0.411,1.561c0.224,0.862,0.445,1.724,0.695,2.581c0.168,0.578,0.358,1.149,0.536,1.723 c0.249,0.793,0.495,1.587,0.765,2.375c0.204,0.595,0.425,1.182,0.641,1.773c0.279,0.761,0.558,1.523,0.858,2.278 c0.236,0.595,0.486,1.184,0.736,1.776c0.312,0.741,0.627,1.48,0.96,2.215c0.267,0.59,0.544,1.175,0.824,1.762 c0.348,0.726,0.702,1.448,1.069,2.166c0.296,0.579,0.599,1.155,0.907,1.728c0.386,0.717,0.783,1.427,1.189,2.134 c0.322,0.562,0.647,1.123,0.982,1.678c0.427,0.709,0.869,1.411,1.317,2.111c0.345,0.54,0.691,1.081,1.049,1.616 c0.474,0.707,0.968,1.405,1.464,2.102c0.363,0.51,0.719,1.023,1.093,1.526c0.534,0.721,1.093,1.427,1.652,2.135 c0.367,0.465,0.724,0.936,1.103,1.396c0.635,0.772,1.298,1.529,1.963,2.286c0.33,0.375,0.647,0.761,0.984,1.133 c1.016,1.121,2.061,2.225,3.142,3.306c1.057,1.057,2.134,2.081,3.228,3.074c0.582,0.531,1.186,1.031,1.78,1.546 c0.506,0.437,1.006,0.887,1.521,1.312c0.841,0.696,1.702,1.363,2.566,2.026c0.266,0.205,0.527,0.42,0.795,0.622 c1.043,0.786,2.105,1.539,3.177,2.277c0.078,0.054,0.155,0.113,0.234,0.167c15.158,10.362,33.053,15.949,51.814,15.949 c17.754,0,34.727-5.014,49.345-14.33c0.101-0.066,0.204-0.129,0.305-0.193c0.991-0.639,1.971-1.296,2.94-1.974 c0.294-0.205,0.586-0.41,0.878-0.618c0.81-0.581,1.613-1.175,2.407-1.783c0.196-0.151,0.398-0.288,0.593-0.44l19.542,19.544 L196.087,484.212z"/> </g>
</svg>