<?xml version="1.0" encoding="iso-8859-1"?>
<!-- Uploaded to: SVG Repo, www.svgrepo.com, Generator: SVG Repo Mixer Tools -->
<svg fill="#000000" height="800px" width="800px" version="1.1" id="Layer_1" xmlns="http://www.w3.org/2000/svg" xmlns:xlink="http://www.w3.org/1999/xlink" 
	 viewBox="0 0 512 512" xml:space="preserve">
<g>
	<g>
		<path d="M408.99,52.133h-89.452V33.442C319.538,14.972,304.565,0,286.096,0h-60.192c-18.47,0-33.442,14.972-33.442,33.442v18.691
			H103.01c-9.234,0-16.721,7.487-16.721,16.721v426.425c0,9.234,7.487,16.721,16.721,16.721H408.99
			c9.234,0,16.721-7.487,16.721-16.721V68.854C425.711,59.619,418.224,52.133,408.99,52.133z M319.538,99.709h14.489
			c9.234,0,16.721,7.487,16.721,16.721c0,9.234-7.487,16.721-16.721,16.721h-14.489V99.709z M225.903,33.442h60.192v100.944h-60.192
			V33.442z M256,179.836c33.578,0,60.799,27.221,60.799,60.799c0,33.578-27.221,60.799-60.799,60.799s-60.799-27.221-60.799-60.799
			S222.422,179.836,256,179.836z M177.972,99.709h14.489v33.442h-14.489c-9.234,0-16.721-7.487-16.721-16.721
			C161.251,107.195,168.737,99.709,177.972,99.709z M371.935,457.146h-231.87c-4.617,0-8.36-3.743-8.36-8.36
			c0-33.2,12.929-64.414,36.405-87.89s54.69-36.405,87.89-36.405s64.414,12.929,87.89,36.405s36.406,54.69,36.406,87.89
			C380.295,453.402,376.553,457.146,371.935,457.146z"/>
	</g>
</g>
</svg>