<?xml version="1.0" ?><!-- Uploaded to: SVG Repo, www.svgrepo.com, Generator: SVG Repo Mixer Tools -->
<svg fill="#000000" width="800px" height="800px" viewBox="0 0 100 100" data-name="Layer 1" id="Layer_1" xmlns="http://www.w3.org/2000/svg"><title/><path d="M55.92,67.4a11.84,11.84,0,0,0,10,11.68V81.4a1.81,1.81,0,0,0,1.82,1.82h6.37v8.19a1.82,1.82,0,0,0,3.64,0V83.22h6.37A1.81,1.81,0,0,0,86,81.4V70.47A11.83,11.83,0,1,0,70.92,56a11.72,11.72,0,0,0-3.17-.44A11.84,11.84,0,0,0,55.92,67.4ZM82.31,79.58H69.57v-.49a11.91,11.91,0,0,0,9.57-8.48,11.55,11.55,0,0,0,3.17.43h0ZM67.75,59.21a8.2,8.2,0,0,1,3.75.91,1.82,1.82,0,0,0,2.64-1.5,8.19,8.19,0,1,1,8.17,8.78,8.06,8.06,0,0,1-3.74-.9A1.82,1.82,0,0,0,75.92,68a8.19,8.19,0,1,1-8.17-8.78Z"/><path d="M5.86,47.73A11.84,11.84,0,0,0,16.78,59.51V71.39a1.82,1.82,0,0,0,1.82,1.82H33.16v18.2a1.82,1.82,0,0,0,3.64,0V73.21H51.37a1.83,1.83,0,0,0,1.82-1.82v-12a11.83,11.83,0,0,0,5.17-21.23A11.84,11.84,0,0,0,46.74,17.72a12.29,12.29,0,0,0-24.43,0A11.84,11.84,0,0,0,10.69,38.17,11.77,11.77,0,0,0,5.86,47.73ZM20.42,69.57V59.23a12.26,12.26,0,0,0,1.89-.61A12.32,12.32,0,0,0,33.16,69.49v.08Zm16.38-.21a12.31,12.31,0,0,0,9.94-10.74,11.84,11.84,0,0,0,2.81.78V69.57H36.8ZM15.23,36.43a8.19,8.19,0,1,1,7.83-14,1.82,1.82,0,0,0,3-1.72,8.1,8.1,0,0,1-.16-1.65,8.65,8.65,0,0,1,17.29,0A8.88,8.88,0,0,1,43,20.7a1.81,1.81,0,0,0,3,1.72,8.2,8.2,0,1,1,7.83,14,1.83,1.83,0,0,0,0,3.48,8.19,8.19,0,1,1-7.83,14,1.79,1.79,0,0,0-2.1-.19A1.82,1.82,0,0,0,43,55.64a8.85,8.85,0,0,1,.15,1.64,8.65,8.65,0,1,1-17.29,0A8.07,8.07,0,0,1,26,55.64a1.82,1.82,0,0,0-.88-1.93,1.85,1.85,0,0,0-.91-.24,1.79,1.79,0,0,0-1.19.45,8.19,8.19,0,1,1-7.83-14,1.82,1.82,0,0,0,0-3.48Z"/></svg>