<?xml version="1.0" encoding="utf-8"?>

<!-- Uploaded to: SVG Repo, www.svgrepo.com, Generator: SVG Repo Mixer Tools -->
<svg version="1.1" id="Icons" xmlns="http://www.w3.org/2000/svg" xmlns:xlink="http://www.w3.org/1999/xlink" 
	 viewBox="0 0 32 32" xml:space="preserve">
<style type="text/css">
	.st0{fill:none;stroke:#000000;stroke-width:2;stroke-linecap:round;stroke-linejoin:round;stroke-miterlimit:10;}
</style>
<g>
	<rect x="3" y="24" width="20" height="2"/>
	<path d="M25,1H7.2C4.9,1,3,2.9,3,5.2V22h20v-2h5c0.6,0,1-0.4,1-1V5C29,2.8,27.2,1,25,1z M27,18h-4V5c0-1.1,0.9-2,2-2s2,0.9,2,2V18z
		"/>
	<path d="M3,28v2c0,0.6,0.4,1,1,1h18c0.6,0,1-0.4,1-1v-2H3z"/>
</g>
</svg>