<?xml version="1.0" encoding="iso-8859-1"?>
<!-- Uploaded to: SVG Repo, www.svgrepo.com, Generator: SVG Repo Mixer Tools -->
<!DOCTYPE svg PUBLIC "-//W3C//DTD SVG 1.1//EN" "http://www.w3.org/Graphics/SVG/1.1/DTD/svg11.dtd">
<svg fill="#000000" height="800px" width="800px" version="1.1" id="Capa_1" xmlns="http://www.w3.org/2000/svg" xmlns:xlink="http://www.w3.org/1999/xlink" 
	 viewBox="0 0 460.543 460.543" xml:space="preserve">
<g id="XMLID_517_">
	<circle id="XMLID_524_" cx="116.303" cy="41.322" r="37.232"/>
	<path id="XMLID_997_" d="M188.963,126.973c-6.708-19.519-17.072-31.287-30.883-35.141c-10.544,29.754-10.234,28.879-15.715,44.346
		c5.369,43.889,1.473,18.616,18.216,116.054c0.44,2.562-0.268,5.189-1.943,7.177c-1.674,1.989-4.141,3.137-6.741,3.137
		c-17.753,0-53.423,0-71.187,0c-2.598,0-5.064-1.156-6.737-3.144c-1.673-1.987-2.386-4.61-1.946-7.171
		c16.737-97.406,12.88-72.432,18.09-115.021c-12.137-34.247-10.554-29.783-16.036-45.249c-13.589,3.981-23.802,15.703-30.437,35.01
		C30.725,164.562,1.392,244.817,1.097,245.623c-3.407,9.318,1.385,19.634,10.703,23.041c9.307,3.406,19.633-1.379,23.041-10.703
		c0.25-0.684,21.315-58.318,35.703-99.049c-0.965,7.893,2.078-8.693-25.517,133.782c-0.567,2.925,0.204,5.949,2.099,8.248
		c1.895,2.299,4.719,3.641,7.698,3.641c3.869,0,8.511,0,13.708,0v130.313c0,11.906,9.651,21.558,21.558,21.558
		s21.558-9.651,21.558-21.558V304.583c3.099,0,6.209,0,9.309,0v130.313c0,11.906,9.651,21.558,21.558,21.558
		s21.558-9.651,21.558-21.558V304.583c5.198,0,9.84,0,13.708,0c2.981,0,5.806-1.333,7.702-3.634s2.662-5.328,2.095-8.255
		c-27.596-142.48-24.557-125.934-25.535-133.934c11.142,31.314,27.533,76.027,36.411,100.164
		c3.458,9.402,13.868,14.228,23.276,10.788c9.227-3.374,13.97-13.606,10.577-22.828
		C221.328,217.035,198.618,155.069,188.963,126.973z"/>
	<path id="XMLID_998_" d="M88.387,90.422c8.098,22.85,7.51,21.191,15.593,44c9.403,0,15.743,0,24.153,0
		c4.616-13.024,10.804-30.486,15.593-44H88.387z"/>
	<path id="XMLID_1002_" d="M241.543,442.539c0,7.484,6.067,13.55,13.55,13.55h191.899c7.484,0,13.551-6.067,13.551-13.55v-158.45
		h-219V442.539z M351.043,307.089c30.603,0,55.5,24.897,55.5,55.5s-24.897,55.5-55.5,55.5s-55.5-24.897-55.5-55.5
		S320.44,307.089,351.043,307.089z"/>
	<path id="XMLID_1008_" d="M446.992,218.089H255.093c-7.484,0-13.55,6.067-13.55,13.551v32.449h219V231.64
		C460.543,224.156,454.476,218.089,446.992,218.089z M398.376,252.089c-4.97,0-9-4.03-9-9s4.03-9,9-9s9,4.03,9,9
		S403.346,252.089,398.376,252.089z M432.376,254.089c-6.075,0-11-4.925-11-11c0-6.075,4.925-11,11-11s11,4.925,11,11
		C443.376,249.165,438.451,254.089,432.376,254.089z"/>
	<path id="XMLID_1011_" d="M351.043,398.089c19.575,0,35.5-15.925,35.5-35.5s-15.925-35.5-35.5-35.5s-35.5,15.925-35.5,35.5
		S331.468,398.089,351.043,398.089z"/>
</g>
</svg>