<?xml version="1.0" ?>
<!DOCTYPE svg  PUBLIC '-//W3C//DTD SVG 1.1//EN'  'http://www.w3.org/Graphics/SVG/1.1/DTD/svg11.dtd'>
<!-- Uploaded to: SVG Repo, www.svgrepo.com, Generator: SVG Repo Mixer Tools -->
<svg fill="#000000" width="800px" height="800px" viewBox="0 0 512 512" enable-background="new 0 0 512 512" id="Drink_x5F_water" version="1.1" xml:space="preserve" xmlns="http://www.w3.org/2000/svg" xmlns:xlink="http://www.w3.org/1999/xlink">
<g>
<g>
<path d="M75.721,351.471c-2.732,4.178-4.177,9.025-4.177,14.019l-0.001,112.731c0,7.36,6.515,13.349,14.521,13.349h141.448    c8.007,0,14.521-5.988,14.521-13.349V366.132c0-4.605-1.244-9.132-3.598-13.088l-3.109-5.229c-1.4-2.355-1.335-4.931,0.186-7.254    l2.344-3.583c2.733-4.18,4.178-9.026,4.178-14.019v-78.202c0-4.623-1.248-9.151-3.6-13.081l-3.109-5.239    c-1.4-2.354-1.335-4.927,0.188-7.251l2.345-3.588c2.732-4.182,4.177-9.028,4.177-14.015v-10.218c0-4.429-0.368-10.23-1.038-16.341    c-2.077-18.847-10.684-36.623-24.235-50.054l-6.928-6.866c-12.101-12.006-19.155-27.525-19.985-43.849    c4.704-1.47,8.127-5.867,8.127-11.049V32.004c0-6.382-5.191-11.573-11.573-11.573h-56.238c-6.382,0-11.573,5.191-11.573,11.573    v31.203c0,3.994,2.035,7.522,5.121,9.604c-0.002,0.092-0.002,0.184-0.004,0.276l-0.002,0.079    c-0.508,16.697-7.555,32.666-19.844,44.965l-7.308,7.317c-13.397,13.398-21.907,31.093-23.962,49.819    c-0.666,6.009-1.049,11.985-1.049,16.396v10.29c0,4.979,1.442,9.826,4.18,14.029l2.148,3.278c1.501,2.294,1.501,5.257,0.002,7.549    l-2.153,3.286c-2.732,4.182-4.177,9.028-4.177,14.014l0.001,79.223c0,4.993,1.444,9.841,4.177,14.02l2.149,3.285    c1.5,2.293,1.5,5.256,0.001,7.549L75.721,351.471z M86.239,335.162l-2.149-3.285c-1.666-2.547-2.546-5.501-2.546-8.545    l-0.001-79.223c0-3.038,0.881-5.993,2.545-8.539l2.15-3.282c3.679-5.62,3.679-12.884-0.002-18.506l-2.141-3.269    c-1.67-2.563-2.553-5.524-2.553-8.561v-10.29c0-4.06,0.36-9.633,0.988-15.299c0.4-3.648,1.095-7.248,2.037-10.776    c7.393,2.052,11.986,8.682,17.156,16.174c6.843,9.918,14.6,21.16,30.333,21.16c15.735,0,23.492-11.241,30.336-21.16    c6.235-9.036,11.62-16.84,22.106-16.84c10.485,0,15.87,7.804,22.105,16.84c6.085,8.819,12.898,18.678,25.395,20.756    c-0.161,2.708-1.019,5.321-2.514,7.609l-2.342,3.584c-3.619,5.524-3.773,12.194-0.415,17.835l3.115,5.249    c1.433,2.395,2.189,5.147,2.189,7.962v78.202c0,3.043-0.881,5.997-2.547,8.545l-2.343,3.582    c-3.615,5.525-3.77,12.193-0.413,17.839l3.11,5.23c1.435,2.411,2.192,5.17,2.192,7.977v93.198H81.543l0.001-93.841    c0-3.044,0.88-5.998,2.545-8.544l2.15-3.285C89.913,348.041,89.913,340.781,86.239,335.162z M227.513,481.569H86.064    c-2.451,0-4.521-1.534-4.521-3.349v-8.891h150.491v8.891C232.034,480.035,229.964,481.569,227.513,481.569z M128.59,32.004    c0-0.868,0.706-1.573,1.573-1.573h56.238c0.867,0,1.573,0.705,1.573,1.573v31.203c0,0.868-0.706,1.573-1.573,1.573h-56.238    c-0.867,0-1.573-0.705-1.573-1.573V32.004z M103.627,132.518l7.31-7.319c13.536-13.548,21.529-31.03,22.66-49.479l46.295-0.067    c1.155,18.474,9.231,35.991,22.9,49.553l6.93,6.868c11.931,11.824,19.508,27.467,21.334,44.043    c0.622,5.674,0.979,11.231,0.979,15.249v0.9c-7.417-2.038-12.02-8.678-17.198-16.184c-6.844-9.918-14.601-21.16-30.336-21.16    s-23.493,11.242-30.337,21.161c-6.235,9.035-11.62,16.839-22.105,16.839c-10.484,0-15.868-7.804-22.103-16.839    c-5.534-8.022-11.669-16.907-22.135-20.013C91.493,147.336,96.844,139.301,103.627,132.518z"/>
<rect height="10" width="115.055" x="100.755" y="217.672"/>
<rect height="10" width="115.055" x="100.755" y="339.229"/>
<path d="M279.907,490.917h138.245l22.305-254.081h-86.428v-34.954l51.229-71.496l-8.129-5.824l-53.1,74.107v38.167h-86.427    L279.907,490.917z M289.067,480.917l-1.017-11.587H410.01l-1.018,11.587H289.067z M410.887,459.33H287.172L273.29,301.188    c8.46,1.416,13.363,8.49,18.935,16.564c6.843,9.918,14.6,21.16,30.333,21.16c15.735,0,23.492-11.241,30.336-21.16    c6.235-9.035,11.62-16.84,22.105-16.84c10.486,0,15.871,7.805,22.106,16.84c5.923,8.584,12.533,18.153,24.404,20.574    L410.887,459.33z M429.541,246.836l-7.145,81.387c-7.337-2.083-11.913-8.689-17.061-16.149    c-6.844-9.919-14.602-21.161-30.337-21.161c-9.284,0-15.79,3.915-20.97,9.161v-53.237H429.541z M344.029,312.989    c-5.973,8.639-11.344,15.923-21.472,15.923c-10.484,0-15.868-7.803-22.103-16.839c-6.504-9.428-13.84-20.043-28.06-21.071    l-3.877-44.166h75.511V312.989z"/>
<path d="M129.518,273.77c9.223,0,14.017-4.667,17.869-8.417c3.328-3.241,5.733-5.583,10.892-5.583    c5.16,0,7.565,2.342,10.896,5.584c3.853,3.75,8.647,8.416,17.87,8.416s14.018-4.666,17.87-8.416    c3.33-3.242,5.735-5.584,10.896-5.584v-9.999c-9.223,0-14.018,4.667-17.87,8.417c-3.33,3.24-5.735,5.582-10.896,5.582    s-7.565-2.342-10.896-5.582c-3.853-3.75-8.647-8.417-17.87-8.417c-9.222,0-14.016,4.667-17.867,8.417    c-3.33,3.24-5.735,5.582-10.894,5.582c-5.159,0-7.564-2.342-10.895-5.582c-3.852-3.75-8.646-8.417-17.868-8.417v9.999    c5.158,0,7.563,2.342,10.894,5.583C115.5,269.103,120.295,273.77,129.518,273.77z"/>
<path d="M129.518,315c9.223,0,14.017-4.668,17.869-8.418c3.328-3.24,5.733-5.582,10.892-5.582c5.16,0,7.565,2.342,10.896,5.582    c3.853,3.75,8.647,8.418,17.87,8.418s14.018-4.668,17.87-8.418c3.33-3.24,5.735-5.582,10.896-5.582v-10    c-9.223,0-14.018,4.666-17.87,8.416c-3.33,3.242-5.735,5.584-10.896,5.584s-7.565-2.342-10.896-5.584    c-3.853-3.75-8.647-8.416-17.87-8.416c-9.222,0-14.016,4.666-17.867,8.417c-3.33,3.241-5.735,5.583-10.894,5.583    c-5.159,0-7.564-2.342-10.895-5.584c-3.852-3.75-8.646-8.416-17.868-8.416v10c5.158,0,7.563,2.342,10.894,5.582    C115.5,310.332,120.295,315,129.518,315z"/>
</g>
</g>
</svg>