<?xml version="1.0" encoding="iso-8859-1"?>
<!-- Uploaded to: SVG Repo, www.svgrepo.com, Generator: SVG Repo Mixer Tools -->
<svg version="1.1" id="Layer_1" xmlns="http://www.w3.org/2000/svg" xmlns:xlink="http://www.w3.org/1999/xlink" 
	 viewBox="0 0 495 495" xml:space="preserve">
<g>
	<path style="fill:#00E7F0;" d="M362.946,113.996C353.929,49.666,298.544,0,231.769,0c-66.993,0-122.522,49.989-131.265,114.624
		c6.046-1.392,12.331-2.152,18.794-2.152c7.469,0,14.707,0.996,21.603,2.839C148.969,72.494,186.643,40,231.769,40
		c44.854,0,82.346,32.103,90.72,74.538c7.047-1.352,14.316-2.068,21.751-2.068C350.609,112.47,356.856,112.998,362.946,113.996z"/>
	<rect x="139.297" y="382.277" style="fill:#C0AB91;" width="45.448" height="40"/>
	<path style="fill:#D9CCBC;" d="M119.297,240.007c-24.133,0-43.768-19.634-43.768-43.768s19.634-43.768,43.768-43.768v-40
		c-6.463,0-12.747,0.76-18.794,2.152c-37.167,8.556-64.974,41.888-64.974,81.616c0,39.297,27.206,72.344,63.768,81.336V495h85.448
		v-40h-45.448V277.576c-6.413,1.577-13.107,2.431-20,2.431V240.007z"/>
	<path style="fill:#C0AB91;" d="M119.297,152.472c24.133,0,43.768,19.634,43.768,43.768s-19.634,43.768-43.768,43.768v40
		c6.893,0,13.587-0.854,20-2.431c36.561-8.993,63.768-42.039,63.768-81.336c0-38.721-26.414-71.376-62.164-80.929
		c-6.896-1.843-14.134-2.839-21.603-2.839V152.472z"/>
	<path style="fill:#FF3F62;" d="M362.946,113.996c-6.09-0.998-12.337-1.526-18.706-1.526V495h115.23V227.7
		C459.47,170.529,417.62,122.959,362.946,113.996z"/>
	<path style="fill:#FF728B;" d="M344.24,112.47c-7.435,0-14.705,0.716-21.751,2.068c-53.175,10.2-93.479,57.057-93.479,113.162V495
		h115.23V112.47z"/>
</g>
</svg>