<?xml version="1.0" encoding="iso-8859-1"?>
<!-- Uploaded to: SVG Repo, www.svgrepo.com, Generator: SVG Repo Mixer Tools -->
<svg fill="#000000" height="800px" width="800px" version="1.1" id="Layer_1" xmlns="http://www.w3.org/2000/svg" xmlns:xlink="http://www.w3.org/1999/xlink" 
	 viewBox="0 0 480 480" xml:space="preserve">
<g>
	<g>
		<g>
			<path d="M468.48,192H448v-74.667C448,105.6,438.4,96,426.667,96H53.333C41.6,96,32,105.6,32,117.333V192H11.52
				C5.12,192,0,197.227,0,203.52v136.853C0,346.773,5.227,352,11.627,352h456.747c6.4,0,11.627-5.227,11.627-11.627V203.52
				C480,197.227,474.773,192,468.48,192z M53.333,117.333h373.333V192h-20.48c-6.4,0-11.52,5.227-11.52,11.52V256H85.333v-52.373
				c0-6.4-5.227-11.627-11.627-11.627H53.333V117.333z M458.667,330.667H21.333V213.333H64V256H53.333
				c-5.867,0-10.667,4.8-10.667,10.667c0,5.867,4.8,10.667,10.667,10.667h373.333c5.867,0,10.667-4.8,10.667-10.667
				c0-5.867-4.8-10.667-10.667-10.667H416v-42.667h42.667V330.667z"/>
			<path d="M106.667,362.667h-64c-5.867,0-10.667,4.8-10.667,10.667C32,379.2,36.8,384,42.667,384h64
				c5.867,0,10.667-4.8,10.667-10.667C117.333,367.467,112.533,362.667,106.667,362.667z"/>
			<path d="M437.333,362.667h-64c-5.867,0-10.667,4.8-10.667,10.667c0,5.867,4.8,10.667,10.667,10.667h64
				C443.2,384,448,379.2,448,373.333C448,367.467,443.2,362.667,437.333,362.667z"/>
		</g>
	</g>
</g>
</svg>