<?xml version="1.0" encoding="iso-8859-1"?>
<!-- Uploaded to: SVG Repo, www.svgrepo.com, Generator: SVG Repo Mixer Tools -->
<svg fill="#000000" version="1.1" id="Layer_1" xmlns="http://www.w3.org/2000/svg" xmlns:xlink="http://www.w3.org/1999/xlink" 
	 viewBox="0 0 512 512" xml:space="preserve">
<g>
	<g>
		<path d="M431.02,175.02C431.02,78.514,352.506,0,256,0S80.98,78.514,80.98,175.02c0,83.04,58.132,152.755,135.837,170.595v102.123
			h-44.408c-15.844,0-28.735,12.89-28.735,28.735V512h224.653v-35.527c0-15.845-12.891-28.735-28.735-28.735h-44.408V345.616
			C372.889,327.775,431.02,258.061,431.02,175.02z M374.027,281.965l-29.591-29.59c16.505-18.846,27.093-42.992,28.848-69.517
			h41.869C413.301,220.898,398.051,255.478,374.027,281.965z M415.153,167.183H373.28v0.001
			c-1.368-20.766-8.147-40.66-19.841-57.951l-12.984,8.779c9.933,14.689,15.781,31.551,17.121,49.172h-28.434v15.674h28.436
			c-1.698,22.209-10.55,42.446-24.248,58.412l-29.695-29.695c7.795-10.134,12.446-22.808,12.446-36.554
			c0-13.746-4.65-26.418-12.446-36.554l70.392-70.392C398.051,94.563,413.301,129.143,415.153,167.183z M322.248,252.352
			c-15.965,13.698-36.203,22.55-58.411,24.248v-42.026c10.711-1.402,20.541-5.629,28.716-11.917L322.248,252.352z M263.837,73.444
			c17.621,1.34,34.483,7.188,49.172,17.121l8.779-12.984c-17.291-11.692-37.186-18.473-57.951-19.841V15.868
			c38.039,1.852,72.619,17.102,99.108,41.125l-70.392,70.391c-8.175-6.288-18.005-10.515-28.716-11.917V73.444z M300.408,175.02
			c0,24.487-19.921,44.408-44.408,44.408s-44.408-19.921-44.408-44.408c0-24.487,19.921-44.408,44.408-44.408
			S300.408,150.533,300.408,175.02z M279.51,348.457v99.282h-47.02v-99.282c7.693,1.038,15.539,1.584,23.51,1.584
			C263.972,350.041,271.818,349.494,279.51,348.457z M189.752,97.689c15.965-13.698,36.203-22.55,58.411-24.248v42.026
			c-10.711,1.402-20.541,5.63-28.716,11.917L189.752,97.689z M248.163,15.868v41.869c-26.524,1.754-50.67,12.342-69.516,28.848
			l-29.592-29.591C175.544,32.97,210.123,17.719,248.163,15.868z M137.973,68.076l29.591,29.59
			c-16.505,18.846-27.093,42.992-28.848,69.517H96.847C98.699,129.143,113.95,94.563,137.973,68.076z M96.847,182.857h41.873
			c1.367,20.766,8.147,40.66,19.841,57.951l12.984-8.779c-9.933-14.689-15.781-31.551-17.121-49.172h28.433v-15.674h-28.436
			c1.698-22.209,10.551-42.446,24.248-58.412l29.695,29.695c-7.796,10.134-12.446,22.808-12.446,36.554
			c0,13.746,4.65,26.418,12.446,36.554l-70.392,70.392C113.949,255.478,98.699,220.898,96.847,182.857z M149.056,293.048
			l70.392-70.391c8.175,6.288,18.005,10.515,28.716,11.917v42.023c-17.621-1.34-34.483-7.188-49.172-17.121l-8.779,12.984
			c17.291,11.692,37.186,18.473,57.951,19.841v41.872C210.123,332.321,175.544,317.071,149.056,293.048z M339.592,463.412
			c7.202,0,13.061,5.859,13.061,13.061v19.853H159.347v-19.853c0-7.202,5.859-13.061,13.061-13.061H339.592z M263.837,334.174
			v-41.87c26.524-1.754,50.67-12.342,69.516-28.846l29.592,29.591C336.456,317.071,301.877,332.323,263.837,334.174z"/>
	</g>
</g>
<g>
	<g>
		<path d="M65.306,175.02H49.633c0,55.112,21.466,106.935,60.444,145.923l11.083-11.081
			C85.141,273.833,65.306,225.947,65.306,175.02z"/>
	</g>
</g>
<g>
	<g>
		<path d="M401.923,29.097L390.84,40.178c36.019,36.028,55.854,83.916,55.854,134.841h15.673
			C462.367,119.908,440.901,68.086,401.923,29.097z"/>
	</g>
</g>
<g>
	<g>
		<rect x="177.633" y="472.033" width="15.673" height="15.673"/>
	</g>
</g>
<g>
	<g>
		<rect x="214.204" y="472.033" width="15.673" height="15.673"/>
	</g>
</g>
</svg>